/* XPM */
static char *b88d373c6a6a48cbafc610885560b424[] = {
/* columns rows colors chars-per-pixel */
"32 32 7 1 ",
"  c black",
". c #1F1E1D",
"X c #2E190D",
"o c #331D0E",
"O c #362316",
"+ c #AD6500",
"@ c #BA7C25",
/* pixels */
"X XXXXX XoXXXX XXXXXXX XXXX OoXX",
"X XoXXo XoXXXX XooXXo  oXoX  oXX",
"X XoXXo XooXXX XXoXoo XoXoXX oXX",
"X XoXXO XXoXoX XXoXoX XoXoXX XoX",
"..XoXXo  XoXoX XXoXoX XoXoXX XoX",
" .XoXXXX XXooXX XoXoX XoXXoX XoX",
"..XoXXXX XoooXX XoXoX  XoXoX XoX",
" .XoXXXX XoOoXX XoXoXX XoXoX XXo",
"..XoXXXX XoOoXX XoooXX XoXoX XXX",
"X XOXXX  XoOoXX XooXXX XoXoX XoX",
"X XOXXX XXooXX XoXXXXX XXXoX XoX",
"X XooXX  XoXXX XoXXXXX XoXoX XoX",
"X XoXXXX XXXXX XoXXoXX XoXXX XoO",
"X XoXXXX XXoXX OoXXoXX XoXXX XoO",
"X XoXXoX XXXoX OoXXoX XXoXoX OoO",
"X XXXoXX XXXoX OoXXoX XXoXXX OoO",
"X XXXoXX XXXoX ooXXoX XXXoX@++Xo",
"X XOXoX XXXXoX ooXXXX XoXoX+ +Xo",
"X XOXoX oXoXoX ooXoXX  oXoX+++Xo",
"X XOXoX oXoXXX XoXoXX  oXoXX XXo",
"..XOXoX oXoXXX XooXXX OoXoXX Xoo",
" .XXooX oXoXoX XooXXX OoXXoX XoX",
"..XXoXX XXoXoX XooXXX OoXXXX XXX",
" .XXooX  XoXXX XooXoX OoXXXX XXX",
"..XXXXXX XoXoX XXXXoXX ooXXX XXX",
"X XXXXXX XoXoX XXXXoXX ooXX OoXX",
"X XXoXoX XoXXX XooXoXX OoXX OoXX",
"X XXoXoX XoXoX XXXXoX  oOXX XoXX",
"X OXoXoX XoXo XXoXoXX XoOoX Xooo",
"X OXoXo  oXXo XXoXoXX XoOoX XoXX",
"X XXoXX XoXoX  XoXoXXX oOoX  XXX",
"X XoXXX XoooXX XXoXXXX oooXX XXX"
};
