/* XPM */
static char *a23cadbef5024c0ca5173343fb8dccf7[] = {
/* columns rows colors chars-per-pixel */
"32 32 4 1 ",
"  c #1F1412",
". c #291A18",
"X c #301F1C",
"o c #3E2723",
/* pixels */
"oo.Xooo o.Xo.oo ooXoooo oooXooo ",
"oo.Xooo o.Xo.oo oX.Xooo oo..ooo ",
"oo.Xooo o.Xo.oo oo..Xoo ooX.Xoo ",
"oX..Xoo o.oo.oo ooX..oo ooo.XXo ",
"X....Xo X.oX.oo oooX.Xo XooX.Xo ",
"..oo.Xo .ooX.oo oXoX.Xo o.oo.oo ",
".ooo.Xo .XoX.Xo oo.X.Xo o.oo.oo ",
".X.o.Xo .Xooo.o oX.o.oo o.Xo.oo ",
"...o.oo .Xooo.o oX.o.oo o.Xo.oo ",
"X.oo.oo .oooX.o oX.o.oo oXoo.oo ",
"o.X..Xo o.....o oo.o.Xo oooo.oo ",
"o....Xo ooooX.o oo.o.Xo o..o.oo ",
"oooo.oo ooX.X.o oo.o.Xo o..o.XX ",
"oooo.oo oo.oX.o oX.o.oo o.oo..o ",
"o.Xoo.o oo.oo.o XX...oo o.o.X.o ",
"X..oo.o oX.o.Xo X.o.Xoo o...o.o ",
".o.oo.o o.oX.oo X.ooooo ooooo.o ",
".o.oo.. X.X.Xoo o.oooXo ooXoo.o ",
".o.oX.. .o.Xo.o o.oo.oo oo.oo.o ",
".ooX..o .X.oX.o X.oo.oo oo.oo.o ",
".oX..oo X..o.Xo X.oX.Xo oX.oX.o ",
"oo..ooo XXoo.oo X.o.X.o o.oo.Xo ",
"oX.oo.o oooX.oo o.Xoo.o X.oo.oo ",
"X..oo.o ooo.Xoo o.Xoo.o X.oX.oo ",
"X.ooo.X ooX.ooo oX.Xo.o X.o.oXo ",
"X..ooX. oo.XoX. oX..o.o o.o.oXo ",
"oX.X.o. oo.oo.o oooXo.o o.X.X.o ",
"oo...o. oX.oX.o ooooo.o o.X.X.o ",
"ooX..o. oX.oX.o ooX.o.o X.X.X.X ",
"ooXoooX oX.Xo.o ooX.o.o X.X.o.X ",
"ooXXoo. oo..o.X ooX.o.o o.oXoXo ",
"oo.Xoo. ooX.Xo. ooo...o X.ooooo "
};
