/* XPM */
static char *_42fa86dae124106bccdc15a8c048b93[] = {
/* columns rows colors chars-per-pixel */
"32 32 3 1 ",
"  c #010101",
". c #76FEFF",
"X c white",
/* pixels */
"................................",
"................................",
"................................",
"................................",
"................................",
"................................",
"................................",
"..............    ..............",
"..........     XX  .............",
".........  XXXX  X  ............",
"........    XX    X ............",
".......  XX XX XX    ...........",
"....... X X XX X XX  ...........",
"....... XXX XX XXXX  ...........",
".......  X    X  X   ...........",
".......    X   X    ............",
"........ XX    XX  .............",
"........ XXXXXXXX ..............",
"........ X X XX X ..............",
"........ X X XX X ..............",
"........   X XX   ..............",
"..........     .................",
"................................",
"................................",
"................................",
"................................",
"................................",
"................................",
"................................",
"................................",
"................................",
"................................"
};
