/* XPM */
static char *_ba48f51a36e4e5092b993ec8b222508[] = {
/* columns rows colors chars-per-pixel */
"32 32 2 1 ",
"  c black",
". c #FF00DD",
/* pixels */
"    ....    ....    ....    ....",
"    ....    ....    ....    ....",
"    ....    ....    ....    ....",
"    ....    ....    ....    ....",
"....    ....    ....    ....    ",
"....    ....    ....    ....    ",
"....    ....    ....    ....    ",
"....    ....    ....    ....    ",
"    ....    ....    ....    ....",
"    ....    ....    ....    ....",
"    ....    ....    ....    ....",
"    ....    ....    ....    ....",
"....    ....    ....    ....    ",
"....    ....    ....    ....    ",
"....    ....    ....    ....    ",
"....    ....    ....    ....    ",
"    ....    ....    ....    ....",
"    ....    ....    ....    ....",
"    ....    ....    ....    ....",
"    ....    ....    ....    ....",
"....    ....    ....    ....    ",
"....    ....    ....    ....    ",
"....    ....    ....    ....    ",
"....    ....    ....    ....    ",
"    ....    ....    ....    ....",
"    ....    ....    ....    ....",
"    ....    ....    ....    ....",
"    ....    ....    ....    ....",
"....    ....    ....    ....    ",
"....    ....    ....    ....    ",
"....    ....    ....    ....    ",
"....    ....    ....    ....    "
};
