/* XPM */
static char *e0a3256517164974aa0bcc3c3f142345[] = {
/* columns rows colors chars-per-pixel */
"32 32 26 1 ",
"  c #1E1E1E",
". c gray12",
"X c #202020",
"o c gray13",
"O c #222121",
"+ c #222222",
"@ c #232323",
"# c #252525",
"$ c gray15",
"% c #272727",
"& c #292725",
"* c #292928",
"= c gray16",
"- c #2A2A2A",
"; c #2B2B2A",
": c #2D2D2D",
"> c #2F2E2E",
", c #2F2F2F",
"< c gray19",
"1 c #313131",
"2 c #333332",
"3 c gray20",
"4 c #383738",
"5 c #3B3A3B",
"6 c gray27",
"7 c gray42",
/* pixels */
"===-====;3=333333333=3*$========",
"=&&&=1==-44==33=33==4*#$+X=%$===",
"===<==,===;44=3=3=4;;=+X========",
"==1=,3=1=-==;;4=;4;==+X=3333%$==",
"===,333=1=====4=3======....+X===",
"==3333331,====4=3=====..3...o33=",
"==-=33333,==&=4=4====<:.33.=====",
"=1===333333===3=4===+X==..%$====",
"7=,11133======3=4=====+  .=====7",
"77==>,<11====73=37====&=%$+ X=73",
"=47=====,,=7763=3377===&&====73=",
"3=4===&===76633=33637========3=3",
"3=47======73333333337=======73=3",
"33=3=====753333=333337======3=33",
"33333777363333===333337737373333",
"3===========3=====3============3",
"3333;;;;333333===3333443;;;33333",
"33=;===%=;43333=33333;======4=33",
"3=4;=%====;3333333332==&&&==;4=3",
"3=;=%%=3==*4333=33444=33=$===4=3",
"=4;=&+==&==;;43=34;;===$3$$==;4=",
"4;==+==.=+=%=;3=4;====$@$X%=$=;4",
";=====...=+===3=4=====$ #XX=$$=;",
"%====.....O===4=4==&==X...+X=#==",
"=&==<3...=&=3=4=3=&&&&oo...3 $$=",
"+==o===.=%==&=3=3=&&===..... X%=",
"=====+++======3=3=====$3..... ==",
".=+=%==%=++===3=3====X$$.....+3=",
"..=+========773=347==XX.X...$===",
"...+=&====744=3=3=447=+X  .X.===",
"..=======74==33=33==47==+ooX X==",
".=%=====74=333333333=47===%=++=="
};
