/* XPM */
static char *_8798f3a323c4fc6eeb55f0ef26823c7[] = {
/* columns rows colors chars-per-pixel */
"32 32 2 1 ",
"  c #E5FBFF",
". c white",
/* pixels */
"                                ",
" .............................. ",
" ................... .......... ",
" .................. ........... ",
" .... ... ................... . ",
" ... ... ................... .. ",
" .. ... ................... ... ",
" ..... ........................ ",
" .... ......................... ",
" ... .......................... ",
" .. ................... ....... ",
" ..................... ........ ",
" ............. ...... ......... ",
" ............ ...... .......... ",
" .............................. ",
" .............................. ",
" .............................. ",
" .............................. ",
" ....... ...................... ",
" ...... ....................... ",
" ..... ........................ ",
" .... ........... ......... ... ",
" ............... ......... .... ",
" .............. ......... ..... ",
" ....................... ...... ",
" ...................... ....... ",
" ..................... .... ... ",
" .... ............... .... .... ",
" ... ............... .... ..... ",
" .............................. ",
" .............................. ",
"                                "
};
